<mxfile host="app.diagrams.net" modified="2024-05-22T04:21:28.764Z" agent="Mozilla/5.0 (Windows NT 10.0; Win64; x64) AppleWebKit/537.36 (KHTML, like Gecko) Chrome/125.0.0.0 Safari/537.36" etag="cBML1BY9zEL-Py-Va5v_" version="24.4.4" type="github">
  <diagram name="Página-1" id="fuuezBYTo3OLxkpgjtlW">
    <mxGraphModel dx="2135" dy="1448" grid="1" gridSize="10" guides="1" tooltips="1" connect="1" arrows="1" fold="1" page="1" pageScale="1" pageWidth="1100" pageHeight="850" math="0" shadow="0">
      <root>
        <mxCell id="0" />
        <mxCell id="1" parent="0" />
        <mxCell id="ZBvYfGgIYswmv3kUVtkH-1" value="&lt;p style=&quot;text-align: left; font-size: 18px;&quot; class=&quot;MsoNormal&quot;&gt;&lt;span style=&quot;font-family: Arial, sans-serif;&quot;&gt;&lt;b&gt;CARNICERIA CARMOL&lt;/b&gt;&lt;/span&gt;&lt;/p&gt;&lt;p style=&quot;text-align: left;&quot; class=&quot;MsoNormal&quot;&gt;&lt;span style=&quot;font-size:12.0pt;&lt;br/&gt;line-height:107%;font-family:&amp;quot;Arial&amp;quot;,sans-serif&quot;&gt;La carnicería carmol ubicada en la ciudad de Tuluá (Valle del Cauca) posee&amp;nbsp;&lt;/span&gt;&lt;span style=&quot;font-family: Arial, sans-serif; font-size: 12pt; background-color: initial;&quot;&gt;problemas en el cuadre diario de&lt;/span&gt;&lt;/p&gt;&lt;p style=&quot;text-align: left;&quot; class=&quot;MsoNormal&quot;&gt;&lt;span style=&quot;font-size:12.0pt;&lt;br/&gt;line-height:107%;font-family:&amp;quot;Arial&amp;quot;,sans-serif&quot;&gt;la contabilidad, esto a casusa del mal registro de las ventas, la inconsistencia la falta de control en el inventario.&lt;/span&gt;&lt;/p&gt;&lt;p style=&quot;text-align: left;&quot; class=&quot;MsoNormal&quot;&gt;&lt;span style=&quot;font-size:12.0pt;&lt;br/&gt;line-height:107%;font-family:&amp;quot;Arial&amp;quot;,sans-serif&quot;&gt;&amp;nbsp;Por tal motivo se decidió virtualizar el manejo de las ventas el&amp;nbsp;&lt;/span&gt;&lt;span style=&quot;font-family: Arial, sans-serif; font-size: 12pt; background-color: initial;&quot;&gt;inventario y los informes, para esto es necesario&amp;nbsp;&lt;/span&gt;&lt;/p&gt;&lt;p style=&quot;text-align: left;&quot; class=&quot;MsoNormal&quot;&gt;&lt;span style=&quot;font-family: Arial, sans-serif; font-size: 12pt; background-color: initial;&quot;&gt;tener una base de datos donde se registrará la información de los&amp;nbsp;&lt;/span&gt;&lt;span style=&quot;font-family: Arial, sans-serif; font-size: 12pt; background-color: initial;&quot;&gt;empleados como cedula, nombre, apellido,&amp;nbsp;&lt;/span&gt;&lt;/p&gt;&lt;p style=&quot;text-align: left;&quot; class=&quot;MsoNormal&quot;&gt;&lt;span style=&quot;font-family: Arial, sans-serif; font-size: 12pt; background-color: initial;&quot;&gt;teléfono, cargo, dirección. Para el control del inventario es necesario el&amp;nbsp;&lt;/span&gt;&lt;span style=&quot;background-color: initial; font-family: Arial, sans-serif; font-size: 12pt;&quot;&gt;idproducto, nombre del producto, cantidad (Kg),&lt;/span&gt;&lt;/p&gt;&lt;p style=&quot;text-align: left;&quot; class=&quot;MsoNormal&quot;&gt;&lt;span style=&quot;background-color: initial; font-family: Arial, sans-serif; font-size: 12pt;&quot;&gt;&amp;nbsp;fecha compra, fecha vencimiento, costo, precio kilo, proveedor.&amp;nbsp;&lt;/span&gt;&lt;/p&gt;&lt;p style=&quot;text-align: left;&quot; class=&quot;MsoNormal&quot;&gt;&lt;span style=&quot;font-family: Arial, sans-serif; font-size: 12pt; background-color: initial;&quot;&gt;De los proveedores es necesario conocer cedula, nombre, apellido, teléfono, dirección, precio producto.&amp;nbsp;&amp;nbsp;&lt;/span&gt;&lt;/p&gt;&lt;p style=&quot;text-align: left;&quot; class=&quot;MsoNormal&quot;&gt;&lt;font face=&quot;Arial, sans-serif&quot;&gt;&lt;span style=&quot;font-size: 16px;&quot;&gt;A la hora de realizar una venta se va a llevar un registro que tendrá id_factura, producto (fk), empleado, total, fecha.&lt;/span&gt;&lt;/font&gt;&lt;/p&gt;&lt;p style=&quot;text-align: left;&quot; class=&quot;MsoNormal&quot;&gt;&lt;br&gt;&lt;/p&gt;" style="text;html=1;align=center;verticalAlign=middle;resizable=0;points=[];autosize=1;strokeColor=none;fillColor=none;" vertex="1" parent="1">
          <mxGeometry x="-1085" y="-5" width="870" height="350" as="geometry" />
        </mxCell>
      </root>
    </mxGraphModel>
  </diagram>
</mxfile>
